<?xml version="1.0" encoding="utf-8"?>
<!-- Generator: Adobe Illustrator 14.0.0, SVG Export Plug-In . SVG Version: 6.00 Build 43363)  -->
<!DOCTYPE svg PUBLIC "-//W3C//DTD SVG 1.1//EN" "http://www.w3.org/Graphics/SVG/1.1/DTD/svg11.dtd">
<svg version="1.1" id="Layer_1" xmlns="http://www.w3.org/2000/svg" xmlns:xlink="http://www.w3.org/1999/xlink" x="0px" y="0px"
	 width="600.2px" height="600.199px" viewBox="0 0 600.2 600.199" enable-background="new 0 0 600.2 600.199" xml:space="preserve">
<path d="M112.229,183.895c3.421-0.952,6.846-1.89,10.284-2.782c4.595,3.803,8.872,8.11,14.119,11.033
	c4.761,1.956,7.953-2.327,9.073-6.348c-3.219-3.771-6.704-7.305-10.497-10.495c21.416-4.16,42.254-11.49,64.146-12.92
	c13.011-1.71,26.104-0.095,39.126,0.549c16.841,1.017,32.604,9.488,49.703,7.854c6.252-0.588,13.86-2.455,16.915-8.58
	c3.891-8.322-1.271-17.988-8.057-23.069c-10.618-7.786-24.412-7.925-37.005-8.829c-23.525-2.285-47.075,1.857-69.971,6.938
	c-10.82,2.816-21.275,6.953-31.503,11.43c-11.227,5.218-20.786,13.22-30.392,20.882C85.517,133.935,42.6,98.613,0.2,62.698v16.239
	c39.048,33.254,78.847,65.64,118.03,98.74C116.232,179.75,114.234,181.826,112.229,183.895z"/>
<path d="M375.077,180.971c13.52,5.166,29.35,3.164,41.412-4.719c9.805-6.213,16.41-16.776,18.938-27.984
	c3.109-12.064-1.953-24.666-9.168-34.268c-9.686-11.779-25.666-17.908-40.75-16.164c-17.699,2.162-33.656,14.943-38.277,32.373
	C341.063,150.959,354.809,174.427,375.077,180.971z"/>
<path d="M456.26,295.837c-8.811-10.705-16.752-22.141-23.701-34.138c-6.414-11.156-10.055-23.558-14.102-35.687
	c-3.205-9.958-10.355-19.131-20.18-23.152c-7.264-1.277-14.342,3.625-17.586,9.894c-5.715,9.277-3.273,21.034,0.988,30.374
	c15.525,33.256,40.383,62.146,70.975,82.422c9.705,6.196,20.248,11.075,31.416,13.971c-3.748,2.666-5.455,6.572-4.996,11.191
	c2.451,0.631,4.926,1.188,7.426,1.674c4.975-1.781,8.52-6.199,13.496-7.898c5.496,0.627,10.848,2.144,16.277,3.185
	c-3.207-3.032-6.473-6-9.764-8.93c31.225-22.798,62.615-45.384,93.689-68.381v-15.547c-34.996,25.951-70.301,51.512-105.625,77.021
	C481.959,319.67,467.86,309.027,456.26,295.837z"/>
<path d="M280.852,370.249c-31.146,6.944-59.445,21.972-88.233,35.149c31.282,0.257,62.346-4.553,93.582-5.395
	c15.509-1.99,30.923-4.801,46.208-8.084c6.336-1.148,11.951-4.406,16.846-8.48c1.369-5.164,3.609-10.336,2.965-15.789
	c-1.041-19.018-10.807-35.816-19.537-52.219c-9.502-15.42-19.92-30.398-32.732-43.274c-7.786-6.679-16.893-13.527-27.658-13.356
	c-4.105-0.398-9.47,1.411-11.98-2.996c-10.522-13.506-25.525-27.39-44.063-24.984c-9.545-0.363-22.636,3.657-22.769,15.2
	c1.533,13.311,10.182,24.339,18.097,34.636c9.327,11.28,19.252,22.15,30.439,31.63c6.286,5.299,10.993,12.111,16.575,18.092
	c-1.926,7.809-11.073,8.366-17.582,9.85c-34.967,5.783-66.57,22.449-98.355,37.209c31.108,0.195,61.992-4.572,93.054-5.379
	c11.02-1.139,21.868-3.438,32.778-5.297c10.769-2.02,22.428-3.442,30.741-11.34c0.369-1.289,1.106-3.871,1.475-5.16
	c2.248,3.369,7.873,5.838,6.988,10.322C299.253,365.007,290.256,368.548,280.852,370.249z"/>
<path d="M434.116,560.391c6.279-1.774,13.855-4.957,14.922-12.297c-0.668-2.731-2.318-4.515-4.947-5.353
	c-6.432,0.757-11.029,7.318-17.828,6.605c-8.787-0.063-16.471-4.953-24.125-8.658c5.326-2.58,12.521-4.166,14.346-10.658
	c1.818-3.469-2.625-8.358-6.289-6.996c-5.939,2.238-11.049,7.67-17.924,6.238c-11.926-1.992-22.869-7.765-33.059-14.07
	C239.587,444.438,119.768,373.984,0.2,303.129v14.541c131.58,77.992,263.495,155.442,395.074,233.441
	C406.334,559.219,420.61,562.324,434.116,560.391z"/>
</svg>
